# xmcd
#
# Track frame offsets:
#	150
#	11982
#	27222
#	40120
#	53367
#	66972
#	79235
#	89945
#	103730
#	121805
#	139207
#	149650
#	161397
#	172532
#	185792
#	203967
#	220270
#	232325
#
# Disc length: 3309
#
# Revision: 3
# Processed by: cddbd v1.5.1PL0 Copyright (c) Steve Scherf et al.
# Submitted via: EasyCD2 v3.00 - Copyright (c) 1997 Greg Leichner
# Normalized: r1:TDELIM( - ),TSWAP
#
DISCID=090ceb12
DTITLE=Various Artist - All Time Country Greats disc 1
DYEAR=1900
DGENRE=
TTITLE0=Johnny Cash - Ring Of Fire
TTITLE1=Ricky Van Shelton - Crime Of Passion
TTITLE2=Marty Robbins - Devil Woman
TTITLE3=Tammy Wynette - D.I.V.O.R.C.E.
TTITLE4=Jimmy Dean - Big Bad John
TTITLE5=Charlie Rich - The Most Beautiful Girl
TTITLE6=Kris Kristofferson - Help Me Make It Through The Night
TTITLE7=Barbara Fairchild - The Teddy Bear Song
TTITLE8=Billy Swan - I Can Help
TTITLE9=Charlie McCoy - Orange Blossom Special
TTITLE10=Statler Brothers - Flowers On The Wall
TTITLE11=Johnny Paycheck - Take This Job And Shove It
TTITLE12=Roger Miller - King Of The Road
TTITLE13=Tanya Tucker - Delta Dawn
TTITLE14=Chet Atkins and Mark Knopfler - Poor Boy Blues
TTITLE15=Exile - Kiss You All Over
TTITLE16=Merle Haggard - Okie From Muskogee
TTITLE17=Willie Nelson - Always On My Mind
EXTD=
EXTT0=
EXTT1=
EXTT2=
EXTT3=
EXTT4=
EXTT5=
EXTT6=
EXTT7=
EXTT8=
EXTT9=
EXTT10=
EXTT11=
EXTT12=
EXTT13=
EXTT14=
EXTT15=
EXTT16=
EXTT17=
PLAYORDER=
